<svg width="183" height="30" viewBox="0 0 183 30" fill="none" xmlns="http://www.w3.org/2000/svg">
<g clip-path="url(#clip0_21_5)">
<path d="M68.8435 12.9104L74.4305 5.64026H80.0877L73.0981 13.9857L80.7422 23.2662H74.8045L68.8435 15.6221V23.2662H64.2617V5.64026H68.8435V12.9104Z" fill="white"/>
<path d="M92.3603 16.7208L90.3031 10.8532L88.246 16.7208H92.3603ZM93.5759 20.2039H87.0304L85.9785 23.2662H81.0928L87.8018 5.64026H92.8044L99.5135 23.2662H94.6278L93.5759 20.2039Z" fill="white"/>
<path d="M107.428 9.52077V23.2662H102.847V9.52077H99.083V5.64026H111.192V9.52077H107.428Z" fill="white"/>
<path d="M121.992 16.7208L119.935 10.8532L117.878 16.7208H121.992ZM123.208 20.2039H116.662L115.61 23.2662H110.725L117.434 5.64026H122.436L129.145 23.2662H124.26L123.208 20.2039Z" fill="white"/>
<path d="M135.732 5.64026V19.3857H141.226V23.2662H131.15V5.64026H135.732Z" fill="white"/>
<path d="M147.247 14.4532C147.247 15.1545 147.38 15.8013 147.645 16.3935C147.91 16.9857 148.268 17.5 148.72 17.9363C149.172 18.3727 149.694 18.7156 150.286 18.9649C150.894 19.1987 151.533 19.3156 152.203 19.3156C152.873 19.3156 153.504 19.1987 154.097 18.9649C154.704 18.7156 155.234 18.3727 155.686 17.9363C156.154 17.5 156.52 16.9857 156.785 16.3935C157.05 15.8013 157.182 15.1545 157.182 14.4532C157.182 13.7519 157.05 13.1052 156.785 12.513C156.52 11.9208 156.154 11.4065 155.686 10.9701C155.234 10.5338 154.704 10.1987 154.097 9.96493C153.504 9.71558 152.873 9.5909 152.203 9.5909C151.533 9.5909 150.894 9.71558 150.286 9.96493C149.694 10.1987 149.172 10.5338 148.72 10.9701C148.268 11.4065 147.91 11.9208 147.645 12.513C147.38 13.1052 147.247 13.7519 147.247 14.4532ZM142.455 14.4532C142.455 13.1441 142.697 11.9286 143.18 10.8065C143.663 9.66883 144.333 8.67922 145.19 7.83766C146.047 6.9961 147.068 6.34156 148.252 5.87403C149.452 5.39091 150.769 5.14935 152.203 5.14935C153.621 5.14935 154.93 5.39091 156.13 5.87403C157.33 6.34156 158.359 6.9961 159.216 7.83766C160.089 8.67922 160.767 9.66883 161.25 10.8065C161.733 11.9286 161.975 13.1441 161.975 14.4532C161.975 15.7623 161.733 16.9857 161.25 18.1234C160.767 19.2454 160.089 20.2272 159.216 21.0688C158.359 21.9104 157.33 22.5727 156.13 23.0558C154.93 23.5233 153.621 23.7571 152.203 23.7571C150.769 23.7571 149.452 23.5233 148.252 23.0558C147.068 22.5727 146.047 21.9104 145.19 21.0688C144.333 20.2272 143.663 19.2454 143.18 18.1234C142.697 16.9857 142.455 15.7623 142.455 14.4532Z" fill="white"/>
<path d="M173.448 13.4013H182.542C182.542 14.3363 182.503 15.1857 182.425 15.9493C182.347 16.713 182.191 17.4221 181.957 18.0766C181.63 18.9961 181.186 19.8143 180.625 20.5311C180.064 21.2324 179.401 21.8246 178.638 22.3078C177.89 22.7753 177.064 23.1337 176.16 23.3831C175.256 23.6324 174.305 23.7571 173.308 23.7571C171.937 23.7571 170.682 23.5311 169.544 23.0792C168.422 22.6272 167.455 21.9961 166.645 21.1857C165.834 20.3597 165.203 19.3779 164.751 18.2402C164.299 17.087 164.073 15.8169 164.073 14.4299C164.073 13.0584 164.291 11.8039 164.728 10.6662C165.18 9.51298 165.811 8.53117 166.621 7.72078C167.447 6.91039 168.438 6.27922 169.591 5.82727C170.744 5.37533 172.03 5.14935 173.448 5.14935C175.287 5.14935 176.9 5.54675 178.287 6.34156C179.674 7.13636 180.773 8.36753 181.583 10.0351L177.235 11.8351C176.83 10.8688 176.3 10.1753 175.646 9.75454C175.007 9.33376 174.274 9.12337 173.448 9.12337C172.763 9.12337 172.139 9.25584 171.578 9.52077C171.017 9.77012 170.534 10.1364 170.129 10.6195C169.739 11.087 169.427 11.6558 169.194 12.326C168.976 12.9961 168.866 13.7441 168.866 14.5701C168.866 15.3182 168.96 16.0117 169.147 16.6506C169.35 17.2896 169.646 17.8428 170.035 18.3104C170.425 18.7779 170.908 19.1441 171.485 19.4091C172.061 19.6584 172.731 19.7831 173.495 19.7831C173.947 19.7831 174.383 19.7363 174.804 19.6428C175.225 19.5337 175.599 19.3701 175.926 19.1519C176.269 18.9182 176.55 18.6221 176.768 18.2636C176.986 17.9052 177.134 17.4688 177.212 16.9545H173.448V13.4013Z" fill="white"/>
<path d="M15 29.5C23.2842 29.5 29.9999 22.7843 29.9999 14.5C29.9999 6.21575 23.2842 -0.499969 15 -0.499969C6.71572 -0.499969 0 6.21575 0 14.5C0 22.7843 6.71572 29.5 15 29.5Z" fill="#F76A63"/>
<path fill-rule="evenodd" clip-rule="evenodd" d="M40 23.2662H44.5818V17.4221H47.2935C49.2727 17.4221 50.7844 16.9078 51.8285 15.8792C52.8883 14.8506 53.4182 13.4013 53.4182 11.5312C53.4182 9.66103 52.8883 8.21168 51.8285 7.18311C50.7844 6.15454 49.2727 5.64026 47.2935 5.64026H40V23.2662ZM46.1013 13.7286H44.5818V9.33376H46.1013C47.7844 9.33376 48.626 10.0662 48.626 11.5312C48.626 12.9961 47.7844 13.7286 46.1013 13.7286Z" fill="#F76A63"/>
<path d="M55.6748 14.5C55.6748 14.1263 55.7449 13.7759 55.8852 13.4489C56.0257 13.1064 56.2205 12.8105 56.47 12.5614C56.7195 12.3122 57.0081 12.1176 57.3353 11.9774C57.6784 11.8373 58.0372 11.7672 58.4114 11.7672C58.7856 11.7672 59.1365 11.8373 59.464 11.9774C59.807 12.1176 60.1033 12.3122 60.3527 12.5614C60.6022 12.8105 60.7972 13.1064 60.9375 13.4489C61.0777 13.7759 61.148 14.1263 61.148 14.5C61.148 14.8737 61.0777 15.2319 60.9375 15.5745C60.7972 15.9015 60.6022 16.1895 60.3527 16.4387C60.1033 16.6878 59.807 16.8825 59.464 17.0226C59.1365 17.1627 58.7856 17.2328 58.4114 17.2328C58.0372 17.2328 57.6784 17.1627 57.3353 17.0226C57.0081 16.8825 56.7195 16.6878 56.47 16.4387C56.2205 16.1895 56.0257 15.9015 55.8852 15.5745C55.7449 15.2319 55.6748 14.8737 55.6748 14.5Z" fill="#F76A63"/>
<path d="M21.0608 9.17534H19.3292C19.3292 6.84547 17.3898 4.95456 15.0002 4.95456C12.6106 4.95456 10.6712 6.84547 10.6712 9.17534H8.93961C7.98723 9.17534 7.20801 9.93508 7.20801 10.8636V20.9934C7.20801 21.9221 7.98723 22.6818 8.93961 22.6818H21.0608C22.0132 22.6818 22.7924 21.9221 22.7924 20.9934V10.8636C22.7924 9.93508 22.0132 9.17534 21.0608 9.17534ZM15.0002 6.64287C16.4374 6.64287 17.5976 7.77403 17.5976 9.17534H12.4028C12.4028 7.77403 13.563 6.64287 15.0002 6.64287ZM21.0608 20.9934H8.93961V10.8636H21.0608V20.9934ZM15.0002 14.2403C13.563 14.2403 12.4028 13.1091 12.4028 11.7078H10.6712C10.6712 14.0377 12.6106 15.9286 15.0002 15.9286C17.3898 15.9286 19.3292 14.0377 19.3292 11.7078H17.5976C17.5976 13.1091 16.4374 14.2403 15.0002 14.2403Z" fill="white"/>
</g>
<defs>
<clipPath id="clip0_21_5">
<rect width="183" height="29" fill="white"/>
</clipPath>
</defs>
</svg>
