<svg width="183" height="30" viewBox="0 0 183 30" fill="none" xmlns="http://www.w3.org/2000/svg">
<path d="M68.844 13.4104L74.431 6.14026H80.0881L73.0986 14.4857L80.7427 23.7662H74.805L68.844 16.1221V23.7662H64.2622V6.14026H68.844V13.4104Z" fill="#30373D"/>
<path d="M92.3606 17.2208L90.3035 11.3532L88.2464 17.2208H92.3606ZM93.5762 20.7039H87.0308L85.9788 23.7662H81.0931L87.8022 6.14026H92.8048L99.5139 23.7662H94.6282L93.5762 20.7039Z" fill="#30373D"/>
<path d="M107.428 10.0208V23.7662H102.846V10.0208H99.0828V6.14026H111.192V10.0208H107.428Z" fill="#30373D"/>
<path d="M121.992 17.2208L119.935 11.3532L117.878 17.2208H121.992ZM123.208 20.7039H116.662L115.61 23.7662H110.725L117.434 6.14026H122.436L129.145 23.7662H124.26L123.208 20.7039Z" fill="#30373D"/>
<path d="M135.732 6.14026V19.8857H141.225V23.7662H131.15V6.14026H135.732Z" fill="#30373D"/>
<path d="M147.247 14.9533C147.247 15.6546 147.379 16.3013 147.644 16.8935C147.909 17.4858 148.268 18 148.72 18.4364C149.172 18.8728 149.694 19.2156 150.286 19.465C150.894 19.6987 151.533 19.8156 152.203 19.8156C152.873 19.8156 153.504 19.6987 154.096 19.465C154.704 19.2156 155.234 18.8728 155.686 18.4364C156.153 18 156.52 17.4858 156.785 16.8935C157.049 16.3013 157.182 15.6546 157.182 14.9533C157.182 14.252 157.049 13.6052 156.785 13.013C156.52 12.4208 156.153 11.9065 155.686 11.4702C155.234 11.0338 154.704 10.6988 154.096 10.465C153.504 10.2156 152.873 10.091 152.203 10.091C151.533 10.091 150.894 10.2156 150.286 10.465C149.694 10.6988 149.172 11.0338 148.72 11.4702C148.268 11.9065 147.909 12.4208 147.644 13.013C147.379 13.6052 147.247 14.252 147.247 14.9533ZM142.455 14.9533C142.455 13.6442 142.696 12.4286 143.179 11.3065C143.662 10.1689 144.333 9.17928 145.19 8.33772C146.047 7.49616 147.068 6.84162 148.252 6.37409C149.452 5.89097 150.769 5.64941 152.203 5.64941C153.621 5.64941 154.93 5.89097 156.13 6.37409C157.33 6.84162 158.359 7.49616 159.216 8.33772C160.088 9.17928 160.766 10.1689 161.249 11.3065C161.733 12.4286 161.974 13.6442 161.974 14.9533C161.974 16.2624 161.733 17.4858 161.249 18.6234C160.766 19.7455 160.088 20.7273 159.216 21.5689C158.359 22.4104 157.33 23.0728 156.13 23.5559C154.93 24.0234 153.621 24.2572 152.203 24.2572C150.769 24.2572 149.452 24.0234 148.252 23.5559C147.068 23.0728 146.047 22.4104 145.19 21.5689C144.333 20.7273 143.662 19.7455 143.179 18.6234C142.696 17.4858 142.455 16.2624 142.455 14.9533Z" fill="#30373D"/>
<path d="M173.448 13.9013H182.542C182.542 14.8364 182.503 15.6858 182.425 16.4494C182.347 17.213 182.191 17.9221 181.957 18.5767C181.63 19.4961 181.186 20.3143 180.625 21.0312C180.064 21.7325 179.402 22.3247 178.638 22.8078C177.89 23.2754 177.064 23.6338 176.16 23.8831C175.256 24.1325 174.305 24.2572 173.308 24.2572C171.937 24.2572 170.682 24.0312 169.544 23.5793C168.422 23.1273 167.455 22.4961 166.645 21.6857C165.834 20.8598 165.203 19.878 164.751 18.7403C164.299 17.5871 164.073 16.3169 164.073 14.9299C164.073 13.5585 164.292 12.3039 164.728 11.1663C165.18 10.013 165.811 9.03123 166.621 8.22084C167.447 7.41045 168.438 6.77928 169.591 6.32733C170.744 5.87539 172.03 5.64941 173.448 5.64941C175.287 5.64941 176.9 6.04682 178.287 6.84162C179.674 7.63642 180.773 8.86759 181.583 10.5351L177.235 12.3351C176.83 11.3689 176.3 10.6754 175.646 10.2546C175.007 9.83382 174.274 9.62343 173.448 9.62343C172.763 9.62343 172.139 9.7559 171.578 10.0208C171.017 10.2702 170.534 10.6364 170.129 11.1195C169.739 11.5871 169.428 12.1559 169.194 12.826C168.976 13.4962 168.867 14.2442 168.867 15.0702C168.867 15.8182 168.96 16.5117 169.147 17.1507C169.35 17.7897 169.646 18.3429 170.035 18.8104C170.425 19.278 170.908 19.6442 171.485 19.9091C172.061 20.1585 172.731 20.2832 173.495 20.2832C173.947 20.2832 174.383 20.2364 174.804 20.1429C175.225 20.0338 175.599 19.8702 175.926 19.652C176.269 19.4182 176.55 19.1221 176.768 18.7637C176.986 18.4052 177.134 17.9689 177.212 17.4546H173.448V13.9013Z" fill="#30373D"/>
<path d="M15 29.9999C23.2842 29.9999 29.9999 23.2842 29.9999 15C29.9999 6.71572 23.2842 0 15 0C6.71572 0 0 6.71572 0 15C0 23.2842 6.71572 29.9999 15 29.9999Z" fill="url(#paint0_linear_173_2)"/>
<path fill-rule="evenodd" clip-rule="evenodd" d="M40 23.7662H44.5818V17.9221H47.2935C49.2727 17.9221 50.7844 17.4078 51.8285 16.3792C52.8883 15.3506 53.4182 13.9013 53.4182 12.0312C53.4182 10.161 52.8883 8.71168 51.8285 7.68311C50.7844 6.65454 49.2727 6.14026 47.2935 6.14026H40V23.7662ZM46.1013 14.2286H44.5818V9.83376H46.1013C47.7844 9.83376 48.626 10.5662 48.626 12.0312C48.626 13.4961 47.7844 14.2286 46.1013 14.2286Z" fill="url(#paint1_linear_173_2)"/>
<path d="M55.6752 15C55.6752 14.6263 55.7453 14.2759 55.8856 13.9489C56.026 13.6064 56.2208 13.3105 56.4704 13.0614C56.7199 12.8122 57.0084 12.6176 57.3357 12.4774C57.6787 12.3373 58.0376 12.2672 58.4118 12.2672C58.786 12.2672 59.1369 12.3373 59.4643 12.4774C59.8074 12.6176 60.1037 12.8122 60.353 13.0614C60.6026 13.3105 60.7976 13.6064 60.9378 13.9489C61.0781 14.2759 61.1484 14.6263 61.1484 15C61.1484 15.3737 61.0781 15.7319 60.9378 16.0745C60.7976 16.4015 60.6026 16.6895 60.353 16.9387C60.1037 17.1878 59.8074 17.3825 59.4643 17.5226C59.1369 17.6627 58.786 17.7328 58.4118 17.7328C58.0376 17.7328 57.6787 17.6627 57.3357 17.5226C57.0084 17.3825 56.7199 17.1878 56.4704 16.9387C56.2208 16.6895 56.026 16.4015 55.8856 16.0745C55.7453 15.7319 55.6752 15.3737 55.6752 15Z" fill="url(#paint2_linear_173_2)"/>
<path d="M21.0605 9.67537H19.3289C19.3289 7.3455 17.3896 5.45459 15 5.45459C12.6103 5.45459 10.671 7.3455 10.671 9.67537H8.93936C7.98698 9.67537 7.20776 10.4351 7.20776 11.3637V21.4935C7.20776 22.4221 7.98698 23.1818 8.93936 23.1818H21.0605C22.0129 23.1818 22.7922 22.4221 22.7922 21.4935V11.3637C22.7922 10.4351 22.0129 9.67537 21.0605 9.67537ZM15 7.1429C16.4372 7.1429 17.5973 8.27406 17.5973 9.67537H12.4026C12.4026 8.27406 13.5627 7.1429 15 7.1429ZM21.0605 21.4935H8.93936V11.3637H21.0605V21.4935ZM15 14.7403C13.5627 14.7403 12.4026 13.6091 12.4026 12.2078H10.671C10.671 14.5377 12.6103 16.4286 15 16.4286C17.3896 16.4286 19.3289 14.5377 19.3289 12.2078H17.5973C17.5973 13.6091 16.4372 14.7403 15 14.7403Z" fill="white"/>
<defs>
<linearGradient id="paint0_linear_173_2" x1="-1.75324" y1="31.3636" x2="83.6434" y2="-2.97588" gradientUnits="userSpaceOnUse">
<stop stop-color="#4174F7"/>
<stop offset="1" stop-color="#42A4FF"/>
</linearGradient>
<linearGradient id="paint1_linear_173_2" x1="-12.5307" y1="31.3636" x2="72.8659" y2="-2.97587" gradientUnits="userSpaceOnUse">
<stop stop-color="#4174F7"/>
<stop offset="1" stop-color="#42A4FF"/>
</linearGradient>
<linearGradient id="paint2_linear_173_2" x1="-28.7533" y1="31.3636" x2="56.6433" y2="-2.97587" gradientUnits="userSpaceOnUse">
<stop stop-color="#4174F7"/>
<stop offset="1" stop-color="#42A4FF"/>
</linearGradient>
</defs>
</svg>
