<svg width="33" height="29" viewBox="0 0 33 29" fill="none" xmlns="http://www.w3.org/2000/svg">
<g clip-path="url(#clip0_21_109)">
<g clip-path="url(#clip1_21_109)">
<path fill-rule="evenodd" clip-rule="evenodd" d="M7.76277 16.8653L0.581196 14.1831C-0.148986 13.9096 -0.154804 12.8788 0.572469 12.5986L30.0474 1.22211C30.1894 1.16727 30.3436 1.15174 30.4937 1.17718C30.6438 1.20261 30.7843 1.26806 30.9004 1.36664C31.0164 1.46521 31.1037 1.59325 31.1531 1.73728C31.2025 1.88131 31.2121 2.03598 31.181 2.18502L25.8913 27.6405C25.8623 27.7788 25.7993 27.9076 25.7078 28.0153C25.6164 28.1229 25.4994 28.206 25.3677 28.2569C25.2359 28.3078 25.0935 28.3249 24.9534 28.3067C24.8133 28.2885 24.68 28.2355 24.5657 28.1525L17.3443 22.9074C17.1312 22.7527 16.8729 22.6728 16.6097 22.6802C16.3464 22.6875 16.093 22.7818 15.8888 22.9482L11.8859 26.2141C11.7787 26.3018 11.6516 26.3618 11.5157 26.3889C11.3799 26.4159 11.2395 26.4092 11.1068 26.3692C10.9742 26.3293 10.8534 26.2574 10.7551 26.1598C10.6567 26.0623 10.5839 25.9421 10.5429 25.8097L7.76277 16.8653ZM24.1313 6.78817L10.0949 15.4379C9.83291 15.5996 9.63085 15.8424 9.51937 16.1294C9.40789 16.4164 9.39309 16.732 9.4772 17.0282L10.9948 22.3634C11.1024 22.7416 11.6513 22.7028 11.7027 22.3121L12.0983 19.3865C12.1725 18.8355 12.4353 18.3274 12.842 17.9484L24.426 7.17605C24.6423 6.97532 24.3834 6.63302 24.1313 6.78817Z" fill="#5EA0DA"/>
</g>
</g>
<defs>
<clipPath id="clip0_21_109">
<rect width="32" height="28" fill="white" transform="translate(0.0302734 0.739746)"/>
</clipPath>
<clipPath id="clip1_21_109">
<rect width="32" height="28" fill="white" transform="translate(0.0302734 0.739746)"/>
</clipPath>
</defs>
</svg>
