<svg width="41" height="26" viewBox="0 0 41 26" fill="none" xmlns="http://www.w3.org/2000/svg">
<g clip-path="url(#clip0_21_113)">
<g clip-path="url(#clip1_21_113)">
<path d="M39.8179 21.7686C39.7777 21.6809 39.7328 21.5954 39.6835 21.5126C38.9891 20.287 37.6627 18.7814 35.7059 16.9958L35.6643 16.9558L35.6435 16.935L35.6227 16.9142H35.6019C34.7123 16.0822 34.1507 15.5238 33.9139 15.2374C33.4819 14.6934 33.3859 14.1414 33.6227 13.5814C33.7891 13.159 34.4147 12.2678 35.4963 10.9046C35.9522 10.329 36.4034 9.74982 36.8499 9.16695C39.2531 6.03255 40.2931 4.03095 39.9747 3.15735L39.8499 2.95415C39.7667 2.83095 39.5523 2.71895 39.2051 2.61655C38.8579 2.51415 38.4131 2.49655 37.8723 2.56535L31.8739 2.60535C31.7367 2.57202 31.5931 2.57588 31.4579 2.61655L31.1859 2.67735L31.0819 2.72855L30.9987 2.79095C30.9107 2.84878 30.8333 2.9213 30.7699 3.00535C30.6833 3.11335 30.6132 3.23359 30.5619 3.36215C29.9386 4.95064 29.1934 6.48856 28.3331 7.96215C27.8211 8.80695 27.3475 9.53975 26.9171 10.159C26.4867 10.7798 26.1267 11.2358 25.8339 11.5286C25.5427 11.8214 25.2787 12.0566 25.0435 12.2326C24.8067 12.4118 24.6275 12.4854 24.5011 12.4582C24.3829 12.4329 24.265 12.4062 24.1475 12.3782C23.951 12.2532 23.7897 12.0803 23.6787 11.8758C23.549 11.6277 23.4675 11.3573 23.4387 11.079C23.4014 10.804 23.3773 10.5274 23.3667 10.2502C23.3605 9.92319 23.3637 9.59613 23.3763 9.26935C23.3923 8.84695 23.3987 8.56055 23.3987 8.41175C23.3987 7.89335 23.4083 7.33175 23.4291 6.72535L23.4803 5.28375C23.4963 4.92855 23.5011 4.55415 23.5011 4.15895C23.5011 3.76375 23.4771 3.45495 23.4291 3.22935C23.3807 3.00391 23.3077 2.78446 23.2115 2.57495C23.1215 2.37211 22.9727 2.20098 22.7843 2.08375C22.5673 1.9565 22.332 1.86367 22.0867 1.80855C21.3507 1.64535 20.4131 1.55575 19.2739 1.54295C16.6915 1.51575 15.0339 1.67895 14.2979 2.03415C13.9992 2.18914 13.7309 2.39673 13.5059 2.64695C13.2563 2.94615 13.2211 3.11095 13.4019 3.13655C14.2339 3.25975 14.8243 3.55255 15.1715 4.01655L15.2963 4.26135C15.3923 4.43735 15.4915 4.75255 15.5875 5.20215C15.6851 5.65015 15.7475 6.14935 15.7747 6.69335C15.8444 7.54366 15.8444 8.39825 15.7747 9.24855C15.7059 9.95735 15.6403 10.5094 15.5779 10.9046C15.5139 11.2998 15.4211 11.6198 15.2963 11.8646C15.1715 12.111 15.0883 12.2598 15.0467 12.3142C15.0195 12.3551 14.984 12.39 14.9427 12.4166C14.7627 12.4846 14.5718 12.5193 14.3795 12.519C14.1859 12.519 13.9491 12.423 13.6723 12.2326C13.3543 12.0051 13.0642 11.7409 12.8083 11.4454C12.4334 11.0072 12.0952 10.5389 11.7971 10.0454C11.3731 9.35694 10.9839 8.64779 10.6307 7.92055L10.2979 7.32855C10.0899 6.94455 9.80506 6.39095 9.44506 5.66135C9.09938 4.96768 8.77917 4.26161 8.48506 3.54455C8.39052 3.28038 8.21603 3.05221 7.98586 2.89175L7.88186 2.82935C7.77947 2.75755 7.66812 2.69946 7.55066 2.65655C7.39608 2.59461 7.23509 2.55007 7.07066 2.52375L1.36506 2.56375C0.782656 2.56375 0.384256 2.69335 0.176256 2.95255L0.0946564 3.07575C0.0454282 3.17718 0.0233755 3.28965 0.0306564 3.40215C0.0306564 3.55255 0.0722564 3.73655 0.155456 3.95415C0.975364 5.84841 1.88247 7.70373 2.87386 9.51415C3.85146 11.2998 4.70266 12.7398 5.42266 13.8278C6.12009 14.8836 6.8566 15.9131 7.63066 16.9142C8.38106 17.8806 8.87706 18.5014 9.11866 18.7734C9.36186 19.0454 9.55386 19.2502 9.69306 19.3878L10.2131 19.8774C10.5459 20.2054 11.0355 20.5974 11.6819 21.0534C12.3267 21.5094 13.0419 21.959 13.8259 22.4022C14.6099 22.8454 15.5235 23.2054 16.5651 23.4854C17.6051 23.7654 18.6195 23.8774 19.6051 23.823H22.0003C22.4867 23.7814 22.8547 23.631 23.1043 23.3734L23.1875 23.271C23.2588 23.1539 23.3116 23.0265 23.3443 22.8934C23.3923 22.7222 23.4163 22.535 23.4163 22.3318C23.3978 21.8002 23.4435 21.2684 23.5523 20.7478C23.6563 20.2774 23.7747 19.9222 23.9059 19.6838C24.1001 19.3257 24.3751 19.0178 24.7091 18.7846C24.7623 18.7569 24.8174 18.7328 24.8739 18.7126C25.2083 18.6038 25.6003 18.7094 26.0515 19.031C26.5027 19.351 26.9267 19.7462 27.3219 20.215C27.7171 20.687 28.1939 21.2134 28.7491 21.799C29.3043 22.3862 29.7891 22.823 30.2051 23.1078L30.6227 23.3542C30.9011 23.5174 31.2627 23.6678 31.7059 23.8022C32.1491 23.9398 32.5379 23.9734 32.8723 23.9062L38.2035 23.8246C38.7315 23.8246 39.1411 23.7382 39.4323 23.5686C39.7235 23.3974 39.8963 23.2102 39.9523 23.007C40.0085 22.7788 40.0124 22.5408 39.9635 22.311C39.9346 22.1258 39.8852 21.9444 39.8163 21.7702L39.8179 21.7686Z" fill="#4B729F"/>
</g>
</g>
<defs>
<clipPath id="clip0_21_113">
<rect width="40" height="25" fill="white" transform="translate(0.0302734 0.239746)"/>
</clipPath>
<clipPath id="clip1_21_113">
<rect width="40" height="25" fill="white" transform="translate(0.0302734 0.239746)"/>
</clipPath>
</defs>
</svg>
