<svg width="31" height="31" viewBox="0 0 31 31" fill="none" xmlns="http://www.w3.org/2000/svg">
<path fill-rule="evenodd" clip-rule="evenodd" d="M15.0263 0.739746H15.0343C23.3043 0.739746 30.0303 7.46975 30.0303 15.7397C30.0303 24.0097 23.3043 30.7397 15.0343 30.7397C11.9843 30.7397 9.15429 29.8327 6.78229 28.2607L1.01629 30.1037L2.88629 24.5317C1.02557 21.9783 0.0253423 18.8992 0.0302917 15.7397C0.0302917 7.46675 6.75629 0.739746 15.0263 0.739746ZM20.8183 24.0387C21.9643 23.7907 23.4003 22.9437 23.7623 21.9217C24.1243 20.8977 24.1243 20.0257 24.0193 19.8407C23.9343 19.6927 23.7333 19.5967 23.4343 19.4527L23.1813 19.3287C22.7403 19.1087 20.5973 18.0497 20.1913 17.9087C19.7943 17.7587 19.4163 17.8117 19.1163 18.2357L18.9453 18.4757C18.5833 18.9837 18.2343 19.4757 17.9443 19.7877C17.6793 20.0687 17.2483 20.1047 16.8863 19.9547L16.7513 19.8997C16.1783 19.6677 14.9073 19.1547 13.3693 17.7857C12.0713 16.6307 11.1903 15.1927 10.9353 14.7607C10.6853 14.3287 10.9013 14.0747 11.1003 13.8407L11.1113 13.8267C11.2403 13.6677 11.3653 13.5357 11.4913 13.4017C11.5813 13.3067 11.6713 13.2097 11.7643 13.1037L11.8043 13.0577C12.0003 12.8317 12.1183 12.6967 12.2493 12.4157C12.3993 12.1247 12.2923 11.8247 12.1863 11.6037C12.1123 11.4487 11.6583 10.3467 11.2683 9.40075L10.8383 8.35775C10.5473 7.66175 10.3263 7.63575 9.88529 7.61775L9.84529 7.61475C9.6911 7.60614 9.53672 7.60147 9.38229 7.60075C8.80929 7.60075 8.21129 7.76875 7.84929 8.13875L7.80929 8.17875C7.34629 8.64875 6.31529 9.69875 6.31529 11.7887C6.31529 13.8837 7.80129 15.9107 8.07629 16.2867L8.09629 16.3137C8.11329 16.3347 8.14429 16.3807 8.18929 16.4457C8.75129 17.2597 11.4863 21.2197 15.5643 22.9097C19.0113 24.3387 20.0343 24.2057 20.8183 24.0387Z" fill="#30CE68"/>
</svg>
